<?xml version="1.0" encoding="UTF-8" standalone="no"?>
<svg
   xmlns:osb="http://www.openswatchbook.org/uri/2009/osb"
   xmlns:dc="http://purl.org/dc/elements/1.1/"
   xmlns:cc="http://creativecommons.org/ns#"
   xmlns:rdf="http://www.w3.org/1999/02/22-rdf-syntax-ns#"
   xmlns:svg="http://www.w3.org/2000/svg"
   xmlns="http://www.w3.org/2000/svg"
   version="1.1"
   id="svg2"
   viewBox="0 0 169.21197 57.035148"
   height="16.096586mm"
   width="47.755379mm">
  <defs
     id="defs4">
    <linearGradient
       osb:paint="solid"
       id="linearGradient5946">
      <stop
         id="stop5948"
         offset="0"
         style="stop-color:#3e2727;stop-opacity:1;" />
    </linearGradient>
  </defs>
  <metadata
     id="metadata7">
    <rdf:RDF>
      <cc:Work
         rdf:about="">
        <dc:format>image/svg+xml</dc:format>
        <dc:type
           rdf:resource="http://purl.org/dc/dcmitype/StillImage" />
        <dc:title></dc:title>
      </cc:Work>
    </rdf:RDF>
  </metadata>
  <g
     transform="translate(-200.28937,-409.37834)"
     id="layer1">
    <g
       id="text4136"
       style="font-style:normal;font-weight:normal;font-size:40px;line-height:125%;font-family:sans-serif;letter-spacing:0px;word-spacing:0px;fill:#000000;fill-opacity:1;stroke:none;stroke-width:1px;stroke-linecap:butt;stroke-linejoin:miter;stroke-opacity:1">
      <path
         id="path4147"
         style="font-style:normal;font-variant:normal;font-weight:normal;font-stretch:normal;font-family:Handlee;-inkscape-font-specification:Handlee;letter-spacing:0px;word-spacing:0px"
         d="m 257.38285,430.88221 q 0.44,0 0.44,5.28 0,0.84 -0.04,2.68 0,1.84 0,1.92 0.4,-4.52 0.8,-6.16 0.44,-1.64 0.88,-2.8 0.44,-1.2 0.96,-1.84 1.28,-1.64 2.96,-1.64 2.12,0 3.16,2.12 1.08,2.12 1.12,5.64 1,-7.24 5.28,-7.24 1.84,0 2.6,1.88 0.76,1.88 0.76,4.48 l -0.12,6.08 q 0,6 2.6,6 l 2.28,-0.36 q 0.2,0 0.4,0.04 -0.4,0.6 -1.48,0.96 -1.08,0.32 -2.12,0.32 -2.04,0 -3.08,-1.8 -1,-1.84 -1.08,-3.84 -0.08,-2.04 -0.08,-3.48 l 0.08,-3.56 q 0,-1.76 -0.24,-3.36 -0.2,-1.6 -1.12,-1.6 -1.36,0 -2.64,5.72 -1.24,5.68 -1.52,10.8 -0.68,0.72 -1.72,0.76 -0.32,0 -0.6,-0.12 -0.36,-2.08 -0.4,-6.92 0,-4.88 -0.48,-7.76 -0.48,-2.88 -2.16,-2.88 -1.12,0 -1.84,2.48 -1.16,3.88 -2.08,12.08 -0.24,1.92 -0.36,2.76 -0.84,0.72 -1.72,0.72 l -0.6,-0.08 q -0.56,-6.68 -0.56,-16.56 0.44,-0.72 1.72,-0.72 z" />
      <path
         id="path4149"
         style="font-style:normal;font-variant:normal;font-weight:normal;font-stretch:normal;font-family:Handlee;-inkscape-font-specification:Handlee;letter-spacing:0px;word-spacing:0px"
         d="m 284.2616,440.24221 q -0.08,0.8 -0.08,1.08 0,2.4 1.44,3.72 1.48,1.32 3.48,1.32 2,0 3.24,-0.56 1.28,-0.56 1.84,-1.2 1.44,-1.8 2.64,-1.8 0.44,0 1.04,0.24 -0.4,1.96 -3.04,3.6 -2.6,1.6 -6.56,1.6 -2.8,0 -4.84,-1.76 -2,-1.8 -2,-4.88 0,-3.08 1.2,-5.96 1.24,-2.92 3.52,-4.96 2.32,-2.08 4.68,-2.08 2.4,0 3.84,1 1.48,0.96 1.48,2.84 0,3.48 -3.12,5.76 -3.08,2.24 -6.56,2.24 -0.92,0 -2.2,-0.2 z m 3.04,-1.32 q 1.88,0 3.36,-1.2 1.48,-1.2 2.08,-2.52 0.64,-1.32 0.64,-2.4 0,-1.08 -0.84,-1.88 -0.84,-0.84 -1.96,-0.84 -2,0 -3.72,2.76 -1.68,2.76 -2.4,5.72 1.76,0.36 2.84,0.36 z" />
      <path
         id="path4151"
         style="font-style:normal;font-variant:normal;font-weight:normal;font-stretch:normal;font-family:Handlee;-inkscape-font-specification:Handlee;letter-spacing:0px;word-spacing:0px"
         d="m 313.76785,436.84221 -0.2,4.6 q 0,3.48 0.8,4.68 0.48,0.8 1.32,0.8 0.24,0 0.68,-0.12 0.84,-0.24 1.4,0.24 -0.28,1.4 -2.8,1.4 -1.72,0 -2.28,-1.44 -0.44,-1.08 -0.64,-2.68 -0.2,-1.64 -0.32,-2.24 -2.6,4.96 -5.04,6.04 -1.24,0.56 -2.88,0.56 -1.64,0 -2.56,-1.56 -0.88,-1.6 -0.88,-4.64 0,-3.04 1,-6.36 1,-3.36 2.92,-5.64 1.92,-2.32 4.2,-2.32 3.28,0 4.36,2.72 0.92,2.32 0.92,5.96 z m -9.8,-1.28 q -0.56,2.16 -0.84,4.12 -0.28,1.92 -0.28,3.44 0,1.48 0.6,2.56 0.64,1.08 1.64,1.08 2.16,0 4.16,-4.08 2,-4.08 2,-7.6 0,-2.28 -1.2,-3.76 -0.8,-0.96 -2.12,-0.96 -1.28,0 -2.36,1.52 -1.04,1.48 -1.6,3.68 z" />
      <path
         id="path4153"
         style="font-style:normal;font-variant:normal;font-weight:normal;font-stretch:normal;font-family:Handlee;-inkscape-font-specification:Handlee;letter-spacing:0px;word-spacing:0px"
         d="m 320.4166,424.44221 q 0,-3.96 -1.08,-5.32 0.52,-0.76 1.8,-0.76 0.24,0 0.52,0.04 1,1 1,5.8 0,2.6 -0.24,6.04 -0.48,6 -0.48,8.8 0,7.56 2.92,7.56 0,0 1.48,-0.28 0.36,0 0.6,0.32 -0.12,1.44 -2.36,1.44 -2.2,0 -3.4,-1.32 -1.2,-1.36 -1.52,-3.36 -0.28,-2.04 -0.28,-3.36 0,-1.32 0.04,-2.88 0.04,-1.6 0.36,-4.56 0.64,-6 0.64,-8.16 z" />
      <path
         id="path4155"
         style="font-style:normal;font-variant:normal;font-weight:normal;font-stretch:normal;font-family:Handlee;-inkscape-font-specification:Handlee;letter-spacing:0px;word-spacing:0px"
         d="m 331.46785,418.92221 q -0.04,0.92 -0.04,2.04 0,1.12 0.12,2.32 -0.56,0.64 -1.52,0.64 -1.2,0 -1.2,-1.92 0,-0.08 0,-0.6 0,-0.52 0,-0.92 0.04,-0.44 0.16,-1 0.28,-0.96 1.24,-0.96 0.96,0 1.24,0.4 z m -2.56,19.6 q 0,-7.84 0.8,-9.04 0.28,-0.44 0.68,-0.44 0.4,0 1.32,0.44 -0.2,3.4 -0.2,7.4 0,0 0.08,8.84 0,1.24 -0.56,1.76 -0.52,0.48 -1,0.48 -0.44,0 -0.92,-0.24 -0.2,-5.2 -0.2,-9.2 z" />
      <path
         id="path4157"
         style="font-style:normal;font-variant:normal;font-weight:normal;font-stretch:normal;font-family:Handlee;-inkscape-font-specification:Handlee;letter-spacing:0px;word-spacing:0px"
         d="m 339.5966,448.64221 q -0.72,0 -0.72,-12.12 0,-5.12 -0.04,-6.2 l -0.8,0 q -0.56,0 -0.88,0 -0.32,-0.04 -0.84,-0.04 -0.48,-0.04 -0.8,-0.12 -0.28,-0.08 -0.6,-0.2 -0.6,-0.24 -0.6,-0.84 0,-0.76 2.48,-0.76 1.08,0 1.96,0.08 0.04,-0.8 0.04,-2.04 0.04,-1.28 0.08,-1.96 0.04,-0.72 0.08,-1.72 0.08,-1 0.2,-1.56 0.16,-0.56 0.4,-1.24 0.24,-0.72 0.64,-1.08 0.4,-0.36 0.92,-0.72 0.92,-0.68 3.04,-0.68 2.16,0 3.16,1.08 1.04,1.04 1.84,3.56 -0.6,0.72 -1.4,0.72 -0.28,0 -0.56,-0.08 -0.72,-1.92 -1.32,-2.6 -0.56,-0.68 -1.56,-0.68 -1,0 -1.52,0.36 -0.48,0.36 -0.76,0.92 -0.6,1.2 -0.6,5.8 0,0.2 0,0.72 0,0.52 0,0.96 l 3.4,-0.32 q 2,0 2,0.92 0,0.6 -0.96,0.8 -0.96,0.2 -2.44,0.24 -1.44,0.04 -2,0.24 -0.08,1.12 -0.08,2.96 0,1.8 0.2,5.76 0.2,3.92 0.2,6 0,2.08 -0.44,2.96 -0.4,0.88 -1.72,0.88 z" />
      <path
         id="path4159"
         style="font-style:normal;font-variant:normal;font-weight:normal;font-stretch:normal;font-family:Handlee;-inkscape-font-specification:Handlee;letter-spacing:0px;word-spacing:0px"
         d="m 358.73473,431.56221 q 0,-2.88 1.84,-2.88 0.36,0 0.72,0.08 0,0.48 0,2.6 0,2.12 0.56,8.48 0.56,6.36 0.56,9.52 0,5.04 -1.76,6.96 -1.76,1.92 -6,1.92 -4.2,0 -7.92,-2.72 0.72,-0.88 1.88,-0.88 0.44,0.04 1.4,0.6 2.84,1.68 4.72,1.68 2.8,0 3.96,-1.76 1.16,-1.76 1.16,-5.92 0,-1 -0.2,-7.2 -0.04,0.12 -0.28,1.04 -0.24,0.88 -0.36,1.16 -0.12,0.28 -0.44,1.04 -0.28,0.76 -0.6,1.08 -0.32,0.32 -0.84,0.76 -0.88,0.8 -2.24,0.8 -1.32,0 -2.12,-0.36 -0.8,-0.36 -1.36,-1.12 -0.52,-0.76 -0.96,-1.6 -0.4,-0.84 -0.64,-2.12 -0.24,-1.32 -0.4,-2.4 -0.12,-1.08 -0.2,-2.64 -0.04,-1.56 -0.08,-2.6 0,-1.04 0,-2.64 l 0,-2.4 q 0.4,-0.68 1.44,-0.68 1.44,0 1.44,1.04 l -0.24,3.88 q 0,5.08 1.08,8.76 1.08,3.68 2.24,3.68 0.88,0 1.56,-0.96 0.68,-0.96 1.04,-2.68 0.36,-1.76 0.6,-3.32 0.24,-1.56 0.32,-3.64 0.12,-3.16 0.12,-4.56 z" />
    </g>
    <circle
       r="4.6133699"
       cy="441.34616"
       cx="218.19295"
       id="path4146-1"
       style="opacity:1;fill:#e53935;fill-opacity:1;stroke:#ffffff;stroke-width:1;stroke-miterlimit:4;stroke-dasharray:none;stroke-opacity:1" />
    <circle
       r="4.6133699"
       cy="435.95721"
       cx="222.19293"
       id="path4146"
       style="opacity:1;fill:#e53935;fill-opacity:1;stroke:#ffffff;stroke-width:1;stroke-miterlimit:4;stroke-dasharray:none;stroke-opacity:1" />
    <circle
       r="4.6133699"
       cy="438.94708"
       cx="229.17836"
       id="path4146-8-5"
       style="opacity:1;fill:#e53935;fill-opacity:1;stroke:#ffffff;stroke-width:1;stroke-miterlimit:4;stroke-dasharray:none;stroke-opacity:1" />
    <circle
       r="4.6133699"
       cy="428.61334"
       cx="219.58191"
       id="path4146-8"
       style="opacity:1;fill:#e53935;fill-opacity:1;stroke:#ffffff;stroke-width:1;stroke-miterlimit:4;stroke-dasharray:none;stroke-opacity:1" />
    <circle
       r="4.6133699"
       cy="430.50739"
       cx="227.66315"
       id="path4146-8-1"
       style="opacity:1;fill:#e53935;fill-opacity:1;stroke:#ffffff;stroke-width:1;stroke-miterlimit:4;stroke-dasharray:none;stroke-opacity:1" />
    <circle
       r="4.6133699"
       cy="434.04288"
       cx="234.60793"
       id="path4146-8-8"
       style="opacity:1;fill:#e53935;fill-opacity:1;stroke:#ffffff;stroke-width:1;stroke-miterlimit:4;stroke-dasharray:none;stroke-opacity:1" />
    <path
       d="m 242.89638,438.83879 a 17.628033,18.737759 0 0 1 -8.30612,17.3735 17.628033,18.737759 0 0 1 -18.3336,0.13368 17.628033,18.737759 0 0 1 -8.52956,-17.25073 l 17.59308,1.17939 z"
       id="path4140"
       style="opacity:1;fill:#e53935;fill-opacity:1;stroke:#ffffff;stroke-width:0.63202709;stroke-miterlimit:4;stroke-dasharray:none;stroke-opacity:1" />
    <path
       id="path5983"
       d="m 229.04534,428.43134 c 1.6237,-6.57454 5.6964,-8.28672 10.84115,-11.0283"
       style="fill:none;fill-opacity:1;fill-rule:evenodd;stroke:#e53935;stroke-width:1.86358821px;stroke-linecap:round;stroke-linejoin:miter;stroke-opacity:1" />
    <path
       id="path6001"
       d="m 244.76145,428.2249 c 0.0909,0.28402 -0.0713,1.56787 -6.84411,0.94776 -3.18119,-0.2913 -4.52914,-3.54696 -3.04443,-6.0701 2.0363,-3.46051 5.23966,-1.64353 6.27731,-0.65532 3.09015,2.94297 3.44094,5.24562 3.61123,5.77766 z"
       style="opacity:1;fill:#e53935;fill-opacity:1;stroke:#ffffff;stroke-width:0;stroke-linecap:round;stroke-linejoin:round;stroke-miterlimit:4;stroke-dasharray:none;stroke-dashoffset:17;stroke-opacity:1" />
  </g>
</svg>
